<mxfile host="drawio-plugin" modified="2021-10-17T19:44:17.277Z" agent="5.0 (X11; Linux x86_64) AppleWebKit/537.36 (KHTML, like Gecko) Chrome/89.0.4389.114 Safari/537.36" etag="99XcdvkqEqlBX73ieip6" version="14.7.4" type="embed"><diagram id="23iRSUPoRavnBvh4doch" name="Page-1"><mxGraphModel dx="797" dy="278" grid="1" gridSize="10" guides="1" tooltips="1" connect="1" arrows="1" fold="1" page="1" pageScale="1" pageWidth="827" pageHeight="1169" math="0" shadow="0"><root><mxCell id="0"/><mxCell id="1" parent="0"/><mxCell id="7" value="Customers" style="swimlane;childLayout=stackLayout;horizontal=1;startSize=30;horizontalStack=0;rounded=1;fontSize=14;fontStyle=0;strokeWidth=2;resizeParent=0;resizeLast=1;shadow=0;dashed=0;align=center;arcSize=3;" vertex="1" parent="1"><mxGeometry x="50" y="430" width="180" height="120" as="geometry"><mxRectangle x="130" y="430" width="70" height="30" as="alternateBounds"/></mxGeometry></mxCell><mxCell id="8" value="+customer name: VARCHAR&#10;city: VARCHAR&#10;street: VARCHAR&#10;telephone: VARCHAR" style="align=left;strokeColor=none;fillColor=none;spacingLeft=4;fontSize=12;verticalAlign=top;resizable=0;rotatable=0;part=1;" vertex="1" parent="7"><mxGeometry y="30" width="180" height="90" as="geometry"/></mxCell><mxCell id="18" value="Cars" style="swimlane;childLayout=stackLayout;horizontal=1;startSize=30;horizontalStack=0;rounded=1;fontSize=14;fontStyle=0;strokeWidth=2;resizeParent=0;resizeLast=1;shadow=0;dashed=0;align=center;" vertex="1" parent="1"><mxGeometry x="310" y="430" width="160" height="120" as="geometry"/></mxCell><mxCell id="19" value="+ number: VARCHAR&#10;model: VARCHAR&#10;price: float4&#10;+ branch name: VARCHAR" style="align=left;strokeColor=none;fillColor=none;spacingLeft=4;fontSize=12;verticalAlign=top;resizable=0;rotatable=0;part=1;" vertex="1" parent="18"><mxGeometry y="30" width="160" height="90" as="geometry"/></mxCell><mxCell id="20" value="Branches" style="swimlane;childLayout=stackLayout;horizontal=1;startSize=30;horizontalStack=0;rounded=1;fontSize=14;fontStyle=0;strokeWidth=2;resizeParent=0;resizeLast=1;shadow=0;dashed=0;align=center;" vertex="1" parent="1"><mxGeometry x="580" y="430" width="160" height="120" as="geometry"/></mxCell><mxCell id="21" value="+name: VARCHAR&#10;city: VARCHAR&#10;street: VARCHAR&#10;telephone: VARCHAR&#10;" style="align=left;strokeColor=none;fillColor=none;spacingLeft=4;fontSize=12;verticalAlign=top;resizable=0;rotatable=0;part=1;" vertex="1" parent="20"><mxGeometry y="30" width="160" height="90" as="geometry"/></mxCell><mxCell id="24" value="Orders" style="swimlane;childLayout=stackLayout;horizontal=1;startSize=30;horizontalStack=0;rounded=1;fontSize=14;fontStyle=0;strokeWidth=2;resizeParent=0;resizeLast=1;shadow=0;dashed=0;align=center;" vertex="1" parent="1"><mxGeometry x="305" y="640" width="170" height="120" as="geometry"/></mxCell><mxCell id="25" value="+ id: serial8&#10;date rent: date&#10;period: int&#10;+ car number: VARCHAR &#10;+ customer name: VARCHAR" style="align=left;strokeColor=none;fillColor=none;spacingLeft=4;fontSize=12;verticalAlign=top;resizable=0;rotatable=0;part=1;" vertex="1" parent="24"><mxGeometry y="30" width="170" height="90" as="geometry"/></mxCell><mxCell id="33" value="" style="fontSize=12;html=1;endArrow=ERzeroToMany;startArrow=ERmandOne;endSize=16;strokeWidth=1;startSize=5;exitX=0.604;exitY=1.013;exitDx=0;exitDy=0;exitPerimeter=0;entryX=-0.003;entryY=0.124;entryDx=0;entryDy=0;entryPerimeter=0;" edge="1" parent="1" source="8" target="25"><mxGeometry width="100" height="100" relative="1" as="geometry"><mxPoint x="390" y="640" as="sourcePoint"/><mxPoint x="300" y="680" as="targetPoint"/><Array as="points"><mxPoint x="159" y="590"/><mxPoint x="159" y="680"/></Array></mxGeometry></mxCell><mxCell id="34" value="" style="fontSize=12;html=1;endArrow=ERoneToMany;startArrow=ERmandOne;startSize=5;endSize=16;strokeWidth=1;exitX=0;exitY=0.5;exitDx=0;exitDy=0;entryX=1;entryY=0.5;entryDx=0;entryDy=0;" edge="1" parent="1" source="21" target="19"><mxGeometry width="100" height="100" relative="1" as="geometry"><mxPoint x="330" y="600" as="sourcePoint"/><mxPoint x="430" y="500" as="targetPoint"/></mxGeometry></mxCell><mxCell id="35" value="" style="fontSize=12;html=1;endArrow=ERoneToMany;startArrow=ERmandOne;startSize=5;endSize=16;strokeWidth=1;exitX=0.5;exitY=1;exitDx=0;exitDy=0;entryX=0.5;entryY=0;entryDx=0;entryDy=0;" edge="1" parent="1" source="19" target="24"><mxGeometry width="100" height="100" relative="1" as="geometry"><mxPoint x="330" y="640" as="sourcePoint"/><mxPoint x="430" y="540" as="targetPoint"/></mxGeometry></mxCell></root></mxGraphModel></diagram></mxfile>